# xmcd
#
# Track frame offsets: 
#        150
#        9987
#        18802
#        26093
#        34729
#        44701
#        53802
#        61019
#        70580
#        83528
#        95046
#        108477
#        118513
#        126898
#        136199
#        147641
#        159540
#        167506
#        178549
#        187095
#        197367
#        206625
#        219642
#        228806
#        237742
#        249648
#        258749
#        271668
#        284832
#
# Disc length: 3938 seconds
#
# Revision: 1
# Processed by: cddbd v1.5.2PL0 Copyright (c) Steve Scherf et al.
# Submitted via: ExactAudioCopy v0.99pb4
#
DISCID=a40f601d
DTITLE=Les Paul And Mary Ford - Meet Mister Callaghan
DYEAR=2007
DGENRE=Country
TTITLE0=In The Good Old Summertime
TTITLE1=Three Little Words
TTITLE2=Jazz Me Blues
TTITLE3=Just One More Chance
TTITLE4=The World Is Waiting For The Sunrise
TTITLE5=Whispering
TTITLE6=Jingle Bells
TTITLE7=Tiger Rag
TTITLE8=I'm Confessin' (That I Love You)
TTITLE9=The Carioca
TTITLE10=Smoke Rings
TTITLE11=Take Me In Your Arms And Hold Me
TTITLE12=Meet Mister Callaghan
TTITLE13=Bye Bye Blues
TTITLE14=Deep In The Blues
TTITLE15=St. Louis Blues
TTITLE16=Mammy's Boogie
TTITLE17=My Baby's Comin' Home
TTITLE18=Lady Of Spain
TTITLE19=I'm Sitting On Top Of The World
TTITLE20=Sleep
TTITLE21=Vaya Con Dios
TTITLE22=Johnny Is The Boy For Me
TTITLE23=Don'cha Hear Them Bells
TTITLE24=The Kangaroo
TTITLE25=South
TTITLE26=I Really Don't Want To Know
TTITLE27=I'm A Fool To Care
TTITLE28=Auctioneer (I'll Buy That Dream)
EXTD=
EXTT0=
EXTT1=
EXTT2=
EXTT3=
EXTT4=
EXTT5=
EXTT6=
EXTT7=
EXTT8=
EXTT9=
EXTT10=
EXTT11=
EXTT12=
EXTT13=
EXTT14=
EXTT15=
EXTT16=
EXTT17=
EXTT18=
EXTT19=
EXTT20=
EXTT21=
EXTT22=
EXTT23=
EXTT24=
EXTT25=
EXTT26=
EXTT27=
EXTT28=
PLAYORDER=
